<svg width="578" height="141" viewBox="0 0 578 141" xmlns="http://www.w3.org/2000/svg"><title>Group 9</title><g fill="#FFF" fill-rule="evenodd"><text transform="translate(1 8)" font-size="90" font-family="GlossAndBloom, Gloss And Bloom"><tspan x="0" y="86">Coming soon!</tspan></text><path d="M253.89 131.928c-9.436.154-20.853.434-34.252.838-13.399.405-26.923.795-40.572 1.17-13.65.376-26.93.668-39.842.877-12.912.209-23.6.195-32.061-.041-2.483.045-4.836.2-7.059.465s-4.571.505-7.045.72c-4.486-.232-9.46-.312-14.924-.238-5.464.074-10.924.211-16.38.412-5.458.201-10.914.423-16.368.667a496.62 496.62 0 0 1-14.888.461c-2-.235-4.495-.423-7.485-.564-2.99-.141-5.979-.271-8.967-.391-2.989-.12-5.731-.284-8.227-.493-2.496-.21-4.252-.521-5.268-.936a100.518 100.518 0 0 1 10.676-2.568 299.454 299.454 0 0 0 11.433-2.352c8.896-.977 18.547-1.748 28.956-2.315 10.408-.567 20.824-.985 31.248-1.255 10.424-.27 20.356-.43 29.798-.478 9.44-.048 17.641-.063 24.6-.046l23.84-.356c7.947-.12 17.01-.275 27.189-.469a20185.816 20185.816 0 0 0 59.954-1.229c8.922-.468 21.079-.86 36.47-1.178 15.393-.318 31.405-.636 48.04-.956 16.634-.319 32.274-.65 46.919-.992 14.645-.342 25.432-.78 32.363-1.313 8.949.04 22.109-.181 39.48-.667 17.371-.485 34.868-.934 52.492-1.348 17.623-.414 33.516-.651 47.679-.713 14.162-.063 22.757.337 25.785 1.199-14.315 1.898-29.636 3.561-45.964 4.99-16.327 1.43-35.636 2.878-57.927 4.344-6.95.152-16.26.342-27.928.57-11.669.23-24.703.477-39.104.743-14.4.266-29.297.547-44.69.844-15.393.296-30.164.592-44.314.888-14.15.295-26.81.586-37.978.874-11.169.288-19.728.566-25.679.836z"/></g></svg>