<svg width="213" height="216" viewBox="0 0 213 216" xmlns="http://www.w3.org/2000/svg"><title>dukunoo-logo</title><g fill="#FFF"><path d="M40.031 186l-3.256 3.357c-.618.64-1.353.78-1.954.362-.484-.335-.651-.738-.568-1.421l.017-.195-1.203.028-.033.153c-.15.905.2 1.644 1.035 2.215a2.786 2.786 0 0 0 1.587.501c.067 0 .15 0 .217-.014.685-.056 1.336-.39 1.887-.975L41 186.67l-.969-.669zM40 196.533l1.073.725 1.773-1.137 3.056 2.06-.357 2.077 1.105.742 1.334-8.291.016-.132-.846-.577L40 196.533zm6.65-2.868l-.536 3.247-2.212-1.483 2.748-1.764zm10.374 7.295l-.538-4.445-1.011-.515L52 202.715l1.077.531 2.447-4.734.505 3.93.05.128.195.097 3.622-1.965-2.464 4.75 1.093.548L62 199.285l-1.011-.5zm11.382 1.407l-1.03-.367L61 208.128l1.293.468 1.572-1.52 3.685 1.32.122 2.136L69 211l-.594-8.482v-.15zm-.943 4.71l-2.673-.953 2.463-2.37.21 3.322zm7.427 5.045l-1.927-.537 2.148-7.707 1.926.537zm7.723-4.448a2.797 2.797 0 0 1 2.123-.43c.842.149 1.474.545 2.07 1.338l.124.165 1.07-.743-.123-.165c-.579-.743-1.316-1.487-2.895-1.767-1.14-.199-2.264.016-3.177.627-.894.595-1.491 1.503-1.72 2.56v.017c-.455 2.23.948 4.212 3.265 4.641.333.066.631.083.912.083 1.123 0 1.913-.413 2.58-.826l.175-.115-.702-.959-.175.116c-.772.48-1.51.76-2.527.562-1.544-.281-2.492-1.718-2.176-3.287.158-.744.562-1.404 1.176-1.817m10.493.326L89 215.366l1.292.097 1.015-1.837 3.68.293.688 1.967L97 216l-2.863-7.935-1.03-.065zm1.456 4.748l-2.666-.211 1.587-2.846 1.08 3.057zm12.98-4.715l.153 5.529-4.576-5.412-1.119.034.22 7.816 1.255-.033-.153-5.679 4.695 5.562.983-.034-.22-7.816zM126.477 205l-1.571.333-2.966 4.784-.754-4.034-1.186.25 1.443 7.667 1.186-.25-.385-2.067 1.01-1.6 3.175 2.817.08.067 1.491-.317-4.088-3.6zm4.647 8.121l-2.172-7.7 1.924-.542 2.172 7.7zM139.667 201L135 203.012l.333 1.02 1.867-.788 1.827 5.756.946-.402-1.84-5.772 1.867-.79zm13.145 1.704c-.3.804-.685 1.427-1.589 1.853a2.57 2.57 0 0 1-2.057.082c-.686-.262-1.238-.77-1.589-1.492-.703-1.427-.2-2.984 1.17-3.64.754-.345 1.456-.377 2.393-.082l.2.065.368-1.18-.2-.066c-.887-.279-1.907-.443-3.279.213-.987.476-1.706 1.28-2.04 2.28-.318.967-.234 2.033.25 3v.017c.486.983 1.305 1.721 2.309 2.05a4.02 4.02 0 0 0 2.978-.198c1.12-.524 1.772-1.295 2.207-2.541l.067-.197-1.12-.377-.068.213zm5.286-10.036l1.64 2.788-3.09 2.053-1.64-2.804-1.008.667 3.814 6.461.095.167 1.009-.651-1.671-2.838 3.09-2.037 1.67 2.821.993-.65-3.893-6.645zm7.754 1.594l-1.28-1.773 2.898-2.427.16-.12-.689-.964-3.058 2.547-1.234-1.721 3.251-2.72.16-.137-.688-.947-4.212 3.511-.16.12 4.468 6.197.128.172 4.244-3.546.16-.12-.689-.964zm7.982-15.432l3.752 3.885-6.721-.943-.098-.016-.767.748 5.155 5.35.147.146.848-.846-3.834-3.983 6.901.96.098.015.685-.65-5.285-5.496zM52.183 131.937c4.262-5.833 8.048-12.194 11.359-19.053 3.31-6.874 5.861-13.396 7.667-19.598 1.806-6.201 2.725-11.601 2.788-16.233.064-4.615-.982-7.595-3.152-8.941-.602-.369-2.044-.513-4.325-.465-2.281.048-5.054.273-8.285.641-3.232.369-6.828.946-10.725 1.73a103.838 103.838 0 0 0-11.454 3.013c.602-1.698 1.283-2.804 2.075-3.285.777-.48 1.173-.913 1.173-1.282-.365-1.33-1.3-2.58-2.789-3.733C35.01 63.577 33.664 63 32.46 63c-.602 0-1.172.433-1.711 1.282-.539.85-1.077 1.907-1.616 3.189a146.337 146.337 0 0 0-1.71 4.278 37.183 37.183 0 0 1-1.981 4.375c-3.723 1.09-7.065 2.308-10.012 3.654-2.947 1.33-5.465 2.612-7.572 3.83-2.107 1.217-3.787 2.243-5.054 3.108-1.267.85-1.949 1.282-2.075 1.282 0 .24-.127.48-.365.737-.237.24-.364.481-.364.737.238.129.364.097.364-.096 0-.176.634-.577 1.901-1.186 1.268-.608 3.517-1.522 6.765-2.74 3.247-1.218 8.11-2.852 14.606-4.92a398.666 398.666 0 0 0-6.226 19.15 512.33 512.33 0 0 0-5.133 18.412 1296.656 1296.656 0 0 0-4.863 19.518v.176a.477.477 0 0 0 .174-.368c0 .609.175 1.09.539 1.458-.127-.128.206-1.25.998-3.381a772.973 772.973 0 0 1 3.073-8.205 479.782 479.782 0 0 1 4.515-11.49 984.852 984.852 0 0 1 5.418-13.123 799.082 799.082 0 0 1 5.592-13.044c1.87-4.263 3.628-8.029 5.323-11.314 3.359-.977 7.002-1.826 10.915-2.547 3.897-.738 7.54-1.218 10.9-1.459 3.358-.24 6.225-.24 8.57 0 2.344.24 3.628.85 3.881 1.827.238 1.33 0 4.07-.729 8.205-.713 4.134-1.917 8.941-3.596 14.406-1.679 5.464-3.786 11.217-6.305 17.226-2.519 6.01-5.465 11.49-8.84 16.409-3.358 4.92-7.128 8.99-11.263 12.21-4.15 3.222-8.57 4.712-13.26 4.472-2.281-.129-4.055-.577-5.323-1.363-1.267-.785-2.25-1.762-2.978-2.916a15.211 15.211 0 0 1-1.71-3.83 103.319 103.319 0 0 0-1.347-4.102c-.127 4.262.744 7.836 2.614 10.768 1.869 2.917 4.831 4.375 8.934 4.375 5.054 0 10.028-1.89 14.955-5.657 4.848-3.765 9.458-8.573 13.72-14.406m12.983 5.345c.728-.127 1.408-.602 2.073-1.44.665-.84 1.282-1.868 1.883-3.071a71.173 71.173 0 0 0 1.71-3.689 36.353 36.353 0 0 1 1.709-3.514c-.127 1.678-.238 3.245-.364 4.686a15.657 15.657 0 0 0 .174 4.147v.364l.712 2.517c.237.839.665 1.614 1.266 2.343.364.474.712.965 1.076 1.44.364.475.84.839 1.44 1.076.729.475 1.377.634 1.979.46.601-.175 1.013-.396 1.266-.634l1.076-2.168a125.016 125.016 0 0 0 3.039-7.266c0 .174.016.348.032.523.126 1.503.664 2.738 1.614 3.688.237.237.728.395 1.44.443.728.063 1.203-.032 1.44-.27.475-.474.776-1.012.902-1.614.127-.601.175-1.013.175-1.266-.238-2.169-.111-4.21.364-6.126.474-1.915 1.202-4.084 2.168-6.49.364.84.696 1.504.997 1.979.3.475.57.965.807 1.44a96.835 96.835 0 0 0 4.052 7.297 64.489 64.489 0 0 0 4.953 7.029c1.805 2.216 3.783 4.21 5.951 5.951a32.116 32.116 0 0 0 6.853 4.242c1.314.602 2.58.776 3.783.539.728-.127 1.266-.744 1.614-1.884.348-1.14.57-2.311.633-3.514.063-1.203-.063-2.248-.364-3.15-.3-.902-.696-1.235-1.171-.997-.601.237-1.171.506-1.71.807-.537.3-1.107.507-1.709.633-1.677.364-3.687-.206-6.03-1.71-2.342-1.503-4.59-3.34-6.758-5.492-2.168-2.169-4.02-4.353-5.586-6.57-1.567-2.215-2.453-3.877-2.707-4.954 6.125-1.076 10.51-4.258 13.152-9.545.127-.237.238-.474.364-.728.111-.237.174-.475.174-.728.364-.839.27-1.71-.269-2.612a7.414 7.414 0 0 0-2.073-2.247 8.768 8.768 0 0 0-2.88-1.346c-1.077-.285-1.979-.269-2.707.095-.126 0-.237.095-.364.27-.126.173-.126.332 0 .442.475 0 .966.127 1.44.364l.539.365v.19c-1.077 2.88-2.549 5.397-4.416 7.566-1.868 2.153-3.814 3.356-5.856 3.609a152.065 152.065 0 0 1 2.706-5.493 214.227 214.227 0 0 1 3.419-6.395 279.137 279.137 0 0 1 3.608-6.3c1.203-2.042 2.28-3.72 3.245-5.05a160.148 160.148 0 0 1 5.049-4.859c1.677-1.551 2.88-2.643 3.608-3.245 1.567-.965 1.804-1.978.728-3.07-.364-.365-.965-.634-1.804-.808a40.593 40.593 0 0 0-2.612-.459c-.902-.11-1.772-.11-2.611 0-.839.127-1.44.3-1.804.538-1.567 1.203-2.849 2.438-3.878 3.688-1.028 1.267-2.184 2.913-3.513 4.955l-.174.174a3.941 3.941 0 0 0-.538 1.171 4.371 4.371 0 0 1-.539 1.172c-.237.237-.728 1.171-1.44 2.786a177.435 177.435 0 0 1-2.516 5.318 454.161 454.161 0 0 0-3.593 7.392 303.87 303.87 0 0 1-.997 2.786c-.538 1.504-1.14 3.182-1.804 5.05a193.202 193.202 0 0 0-1.884 5.588c-.364 1.14-.648 2.152-.823 3.055a.255.255 0 0 0-.063.11c-.237.238-.538.697-.902 1.346a78.768 78.768 0 0 1-1.171 2.073c-.427.713-.807 1.393-1.171 1.979-.364.602-.538.966-.538 1.076-.127.127-.364.428-.728.903-.364.475-.665.728-.903.728-.237 0-.506-.238-.807-.728-.3-.475-.332-1.203-.095-2.169a155.42 155.42 0 0 1 2.707-11.254c1.092-3.894 2.77-7.17 5.048-9.814.475-.602.87-1.013 1.172-1.267.3-.237.743-.601 1.345-1.076.364-.238.443-.602.269-1.076-.19-.475-.396-.84-.633-1.077-2.88-3.846-5.65-3.846-8.293 0a18.888 18.888 0 0 0-2.169 3.514 48.649 48.649 0 0 1-1.978 3.688 424.09 424.09 0 0 0-4.052 6.76c-1.376 2.342-2.738 4.653-4.051 6.933-.966 1.33-1.599 1.915-1.9 1.804-.3-.11-.332-.665-.094-1.615 1.313-5.999 4.384-11.76 9.18-17.285.727-.728.901-1.377.537-1.979-.364-.601-.965-1.013-1.804-1.266-.839-.237-1.74-.269-2.706-.095-.966.19-1.678.633-2.169 1.346a221.817 221.817 0 0 1-2.706 4.147c-.965 1.44-1.915 3.245-2.88 5.398a61.322 61.322 0 0 0-2.248 6.569c-.664 2.342-1.013 4.543-1.076 6.569-.063 2.042.3 3.688 1.076 4.954.807 1.235 2.153 1.678 4.084 1.33"/><path d="M211.229 117.825a11.02 11.02 0 0 1-1.883.812c.601-1.561 1.14-3.409 1.614-5.528a49.89 49.89 0 0 0 .996-6.165c.19-1.99.206-3.743.095-5.257-.127-1.513-.538-2.5-1.265-2.994-.601-.367-1.202-.478-1.803-.367a3.902 3.902 0 0 0-1.614.717 3.323 3.323 0 0 0-1.075 1.45 5.851 5.851 0 0 0-.095 1.816c.063.605.095 1.21.095 1.816v2.166c0 .367.11.67.364.908l.174.176c.6.238.933.78.996 1.624.063.845 0 1.848-.174 2.995a23.4 23.4 0 0 1-.901 3.632 42.472 42.472 0 0 1-1.345 3.537c-1.202-.367-1.977-1.179-2.34-2.453-.364-1.275-.238-2.565.363-3.903.11-.478.269-.813.459-.988.174-.191.332-.398.458-.637 0-.112-.031-.51-.094-1.179a40.909 40.909 0 0 0-.27-2.262 65.399 65.399 0 0 0-.442-2.629c-.19-.908-.396-1.656-.633-2.262-.237-.844-.427-1.354-.538-1.545a.624.624 0 0 0-.537-.27c-1.329.732-2.61 1.72-3.875 2.994-1.266 1.259-2.436 2.724-3.512 4.35a48.213 48.213 0 0 0-2.878 4.985 34.274 34.274 0 0 0-1.74 4.142c-.237.08-.475.175-.696.287-.538.302-1.17.573-1.898.812.601-1.56 1.139-3.409 1.613-5.528a49.89 49.89 0 0 0 .997-6.164c.19-1.992.205-3.744.095-5.257-.127-1.514-.538-2.501-1.266-2.995-.6-.367-1.202-.478-1.803-.367a3.902 3.902 0 0 0-1.613.717 3.323 3.323 0 0 0-1.076 1.45 5.851 5.851 0 0 0-.094 1.816c.063.605.094 1.21.094 1.816v2.166c0 .367.127.67.364.908l.174.176c.601.239.933.78.997 1.625.063.844 0 1.847-.19 2.994a21.733 21.733 0 0 1-.902 3.632 42.473 42.473 0 0 1-1.344 3.537c-1.202-.366-1.977-1.179-2.34-2.453-.365-1.275-.238-2.565.363-3.903.11-.478.269-.813.459-.988.174-.191.332-.398.458-.637 0-.112-.031-.51-.095-1.179a65.21 65.21 0 0 0-.269-2.262 46.185 46.185 0 0 0-.458-2.628 12.838 12.838 0 0 0-.633-2.262c-.237-.845-.427-1.355-.538-1.546a.624.624 0 0 0-.537-.27c-1.329.732-2.61 1.72-3.875 2.994a28.543 28.543 0 0 0-3.512 4.35 48.213 48.213 0 0 0-2.878 4.985c-.839 1.689-1.503 3.33-1.977 4.89-.839 2.422-1.313 4.716-1.44 6.883-.094 1.672-.079 3.202.048 4.588-.522.764-1.186 1.768-2.025 3.026-.237.24-.537.701-.901 1.354-.364.67-.76 1.354-1.17 2.087a35.363 35.363 0 0 1-1.171 1.896c-.364.541-.601.876-.728.988-.474.971-.838 1.45-1.075 1.45-.127 0-.3-.43-.538-1.275-.237-.606-.443-1.482-.632-2.629-.19-1.147-.27-2.628-.27-4.444.475-5.32 1.677-10.339 3.607-15.038 1.914-4.716 3.717-8.634 5.409-11.788.237-.24.411-.51.538-.813.126-.303.3-.573.538-.812.964-1.211 1.55-2.199 1.803-2.995.237-.78.332-1.418.268-1.912-.063-.478-.268-.812-.632-.987-.364-.192-.601-.399-.728-.638a7.895 7.895 0 0 0-2.435-1.72c-.902-.414-1.898-.542-2.974-.367-1.075.176-2.183.75-3.337 1.72-1.139.973-2.373 2.422-3.685 4.35a165.638 165.638 0 0 0-5.125 8.252 273.874 273.874 0 0 0-3.337 5.894 87.75 87.75 0 0 1-1.977 3.17c-.601.908-1.076 1.609-1.44 2.087 0-.24-.094-.335-.268-.271-.174.064.031-.637.632-2.087.11-.605.411-1.386.902-2.358.474-.971.933-2.055 1.344-3.265.427-1.211.743-2.358.98-3.441.127-.478.19-.908.19-1.275v-1.178c0-.415-.126-.75-.363-.988-.237-.478-.902-.908-1.977-1.274-1.076-.367-1.914-.24-2.515.366-1.329 1.322-2.5 2.963-3.511 4.89-1.028 1.928-2.673 4.477-4.95 7.615-.475.605-.634 1.083-.46 1.45.174.366.57.478 1.17.366a89.62 89.62 0 0 1 1.804-2.628c.727-1.02 1.44-2.055 2.167-3.075a57.517 57.517 0 0 0 1.803-2.724c.474-.78.775-1.243.901-1.354 1.076-1.45 1.503-1.689 1.266-.733-.127.606-.459 1.545-.997 2.804a178.112 178.112 0 0 0-1.708 4.174 317.151 317.151 0 0 1-1.803 4.428h-.19c-1.075 1.21-1.898 2.183-2.436 2.9-.537.732-1.28 1.815-2.245 3.265-.238.239-.538.701-.902 1.354-.364.67-.743 1.354-1.17 2.087-.427.717-.807 1.402-1.17 1.991-.365.606-.539.972-.539 1.084-.126.127-.363.43-.727.908-.364.477-.664.732-.902.732-.237 0-.506-.239-.806-.732-.3-.494-.332-1.211-.095-2.183a166.223 166.223 0 0 1 2.704-11.326c1.076-3.935 2.768-7.217 5.046-9.877.474-.605.87-1.02 1.17-1.274.3-.24.744-.606 1.345-1.084.363-.238.458-.605.269-1.083-.174-.478-.396-.844-.633-1.083-2.879-3.871-5.647-3.871-8.288 0a19.032 19.032 0 0 0-2.167 3.536 43.971 43.971 0 0 1-1.977 3.712 427.421 427.421 0 0 0-4.049 6.802c-1.376 2.358-2.736 4.684-4.049 6.978-.965 1.338-1.597 1.927-1.882 1.816-.3-.112-.332-.67-.095-1.641 1.313-6.038 4.381-11.836 9.174-17.396.727-.733.901-1.386.537-1.991-.363-.605-.964-1.02-1.803-1.274-.838-.24-1.74-.271-2.704-.096-.965.175-1.677.637-2.151 1.354a223.409 223.409 0 0 1-2.705 4.174c-.965 1.45-1.914 3.265-2.879 5.432a58.666 58.666 0 0 0-2.245 6.61c-.665 2.359-1.029 4.557-1.076 6.612-.063 2.055.3 3.712 1.076 4.986.79 1.274 2.135 1.72 4.049 1.354.727-.127 1.407-.605 2.072-1.45.664-.844 1.296-1.88 1.897-3.09a71.864 71.864 0 0 0 1.709-3.712 36.695 36.695 0 0 1 1.708-3.536c-.127 1.688-.237 3.265-.364 4.715a15.866 15.866 0 0 0 .174 4.174v.366c.237.845.475 1.689.728 2.533.237.844.664 1.625 1.265 2.358.364.478.727.971 1.075 1.45.348.477.839.844 1.44 1.083.727.478 1.376.637 1.977.462.6-.176 1.012-.399 1.265-.638l1.076-2.182c1.312-2.9 2.483-5.767 3.51-8.602.68-1.912 1.756-3.76 3.164-5.528-.538 1.768-.917 3.234-1.091 4.349-.237 1.45-.27 2.533-.095 3.266.174.732.506 1.21.98 1.45a6.21 6.21 0 0 0 1.614.54c1.075 0 2.04-.43 2.878-1.274.839-.844 1.914-2.294 3.243-4.348.6-.845 1.47-2.199 2.61-4.079a366.506 366.506 0 0 0 3.685-6.165 410.47 410.47 0 0 1 4.144-6.881c1.439-2.358 2.815-4.509 4.143-6.436-.964 1.688-2.008 3.903-3.147 6.61a100.833 100.833 0 0 0-3.147 8.699c-.965 3.074-1.677 6.26-2.167 9.51-.475 3.266-.538 6.276-.19 9.064.237 1.322.727 2.756 1.44 4.254a9.82 9.82 0 0 0 3.052 3.711c.364 0 .538.112.538.367.727.366 1.502.414 2.34.175.839-.24 1.376-.478 1.614-.733.363-.366.664-.844.901-1.45a111.13 111.13 0 0 0 3.511-8.697c.601-1.705 1.487-3.33 2.642-4.907.221 1.163.522 2.199.87 3.107.474 1.21.901 2.055 1.265 2.532.965 1.211 2.04 1.816 3.242 1.816s2.752-.78 4.682-2.357c1.914-1.561 3.606-3.632 5.045-6.165a124.977 124.977 0 0 0 4.144-7.981c.238-.478.396-.844.459-1.083.063-.24.206-.654.459-1.275.838-.478 1.439-.78 1.803-.908.221-.08.522-.255.901-.525-.617 2.007-.98 3.934-1.075 5.766-.11 2.183-.063 4.11.19 5.799.237 1.688.6 3.138 1.075 4.349.475 1.21.902 2.055 1.265 2.533.965 1.21 2.04 1.816 3.243 1.816 1.202 0 2.752-.781 4.681-2.358 1.914-1.561 3.607-3.632 5.046-6.165a124.977 124.977 0 0 0 4.144-7.981 8.37 8.37 0 0 0 .458-1.083c.064-.24.206-.653.443-1.275.839-.478 1.44-.78 1.803-.908.364-.127.902-.478 1.63-1.083l.901-.908v-.542c-.664.192-1.234.335-1.771.638m-29.419 4.81c0 .128-.127.303-.364.542l-.174.175c-.364.733-.965 1.88-1.803 3.441-.838 1.577-1.613 2.836-2.34 3.808-1.33 2.182-2.515 3.138-3.607 2.899-.237 0-.6-.24-1.075-.733-.601-.605-.997-1.545-1.17-2.804-.175-1.258-.206-2.39-.096-3.36v-.176c.364-2.772 1.076-5.384 2.167-7.79a39.102 39.102 0 0 1 3.954-6.882 10.782 10.782 0 0 0-.269 3.17 8.155 8.155 0 0 0 .807 3.17 8.132 8.132 0 0 0 1.803 2.454c.728.669 1.613 1.003 2.705 1.003-.364.606-.538.956-.538 1.084m22.127 0c0 .127-.126.302-.364.541l-.19.175c-.363.733-.964 1.88-1.802 3.441-.839 1.577-1.63 2.836-2.341 3.808-1.329 2.182-2.515 3.138-3.606 2.899-.238 0-.601-.24-1.076-.733-.601-.605-.98-1.545-1.17-2.804-.19-1.258-.206-2.39-.095-3.36v-.176c.364-2.772 1.075-5.384 2.167-7.79a39.102 39.102 0 0 1 3.954-6.882 10.782 10.782 0 0 0-.27 3.17 8.155 8.155 0 0 0 .807 3.17 8.132 8.132 0 0 0 1.804 2.454c.727.669 1.613 1.003 2.704 1.003-.332.606-.522.956-.522 1.084M80.976 24.99l-1.12.337c-.378.112-.74.24-1.119.368l-2.223.738c-1.466.56-2.933 1.074-4.367 1.731a77.302 77.302 0 0 0-8.373 4.2c-2.712 1.54-5.282 3.335-7.773 5.195A71.604 71.604 0 0 0 49 43.7l.773.946c2.554-1.683 5.06-3.35 7.694-4.841.647-.401 1.309-.738 1.971-1.107.662-.352 1.309-.737 1.987-1.058.678-.336 1.34-.673 2.002-1.026l2.034-.962c.347-.16.678-.32 1.01-.465l1.024-.433c.694-.288 1.356-.609 2.05-.881l2.081-.818c.694-.289 1.404-.497 2.097-.753 1.388-.513 2.823-.946 4.226-1.395l2.129-.61c.362-.096.71-.208 1.072-.304l1.072-.273c2.854-.753 5.77-1.314 8.672-1.795.725-.112 1.45-.225 2.192-.353l2.191-.272a48.945 48.945 0 0 1 2.208-.24c.74-.065 1.466-.161 2.207-.193 2.949-.24 5.913-.273 8.877-.209l2.224.129c.362.032.74.032 1.119.064l1.104.112c.74.08 1.482.128 2.223.224l2.207.289c2.933.465 5.866 1.01 8.736 1.795l1.088.273c.362.096.71.208 1.072.32l2.144.642 2.113.721c.347.129.71.24 1.056.37l1.041.4c2.807 1.042 5.519 2.309 8.215 3.64 2.665 1.378 5.282 2.869 7.805 4.52 5.045 3.303 9.728 7.183 13.985 11.511A85.757 85.757 0 0 1 175.975 66l1.025-.641A89.716 89.716 0 0 0 165.994 50.4a87.34 87.34 0 0 0-13.922-12.28 86.35 86.35 0 0 0-33.995-14.542l-2.302-.417c-.773-.128-1.545-.224-2.302-.336l-1.151-.16c-.378-.049-.773-.08-1.167-.129l-2.318-.24c-3.106-.225-6.228-.353-9.35-.273-6.26.24-12.503 1.186-18.51 2.966m89.104 142.276c3.565-4.532 6.606-9.445 8.919-14.66l-1.046-.605c-3.294 4.564-6.795 8.873-10.629 12.848a98.732 98.732 0 0 1-12.34 10.86 107.952 107.952 0 0 1-13.845 8.73c-1.204.636-2.44 1.224-3.675 1.844-1.236.573-2.503 1.113-3.755 1.654-1.267.493-2.566.97-3.849 1.463l-3.913 1.272c-10.55 3.1-21.75 4.134-32.759 2.942-11.01-1.225-21.829-4.643-31.587-10.082l-.602 1.05a89.221 89.221 0 0 0 15.35 7.267 86.464 86.464 0 0 0 16.522 4.166 86.412 86.412 0 0 0 17.077.89 87.898 87.898 0 0 0 16.997-2.496l4.166-1.13c1.363-.445 2.741-.874 4.103-1.335 1.347-.509 2.71-1.002 4.04-1.527 1.315-.572 2.661-1.128 3.976-1.717a72.008 72.008 0 0 0 14.7-9.143 77.385 77.385 0 0 0 12.15-12.291M22.551 39.72c3.27-3.279 6.65-6.416 10.173-9.38a193.188 193.188 0 0 1 10.851-8.498c3.712-2.712 7.598-5.234 11.673-7.41a109.308 109.308 0 0 1 25.905-9.98c9.05-2.16 18.417-3.185 27.784-2.964L109 .227c-4.723-.3-9.477-.3-14.216-.016-4.739.284-9.477.883-14.153 1.766a109.596 109.596 0 0 0-27.2 8.844c-4.327 2.066-8.56 4.352-12.636 6.937a79.23 79.23 0 0 0-11.42 8.814 89.673 89.673 0 0 0-9.714 10.626c-2.922 3.8-5.544 7.82-7.661 12.093l1.058.709c3.096-3.547 6.224-7 9.493-10.28"/></g></svg>